<svg width="27" height="27" fill="none" xmlns="http://www.w3.org/2000/svg"><path d="M13.5 11.13a2.406 2.406 0 1 0 2.406 2.407A2.423 2.423 0 0 0 13.5 11.13z" fill="#2051C8"/><path fill-rule="evenodd" clip-rule="evenodd" d="M17.524 7.182H9.476a2.34 2.34 0 0 0-2.331 2.331v8.048a2.34 2.34 0 0 0 2.331 2.331h8.048a2.34 2.34 0 0 0 2.331-2.331V9.513a2.34 2.34 0 0 0-2.331-2.331zM13.5 17.709a4.175 4.175 0 0 1-2.953-7.125 4.174 4.174 0 0 1 7.125 2.953A4.191 4.191 0 0 1 13.5 17.71zm4.325-7.483a.975.975 0 1 1 0-1.95.975.975 0 0 1 0 1.95z" fill="#2051C8"/><path fill-rule="evenodd" clip-rule="evenodd" d="M6 2.275A13.5 13.5 0 0 1 13.5 0 13.513 13.513 0 0 1 27 13.5 13.5 13.5 0 1 1 6 2.275zm14.42 18.181a4.109 4.109 0 0 0 1.202-2.895V9.513a4.109 4.109 0 0 0-4.098-4.098H9.476a4.108 4.108 0 0 0-4.098 4.098v8.048a4.108 4.108 0 0 0 4.098 4.099h8.048a4.109 4.109 0 0 0 2.895-1.204z" fill="#2051C8"/></svg>