<svg xmlns="http://www.w3.org/2000/svg" viewBox="0 0 150 150"><path d="M95.7 33.45c1.71-2.86 3.52-6 5.4-9.48a1.82 1.82 0 0 1 2.44-.73 1.8 1.8 0 0 1 .73 2.45c-1.86 3.43-3.49 6.62-4.94 9.57a20.82 20.82 0 0 0-3.63-1.81zM110.38 49q3.18-2.85 7-6a1.8 1.8 0 1 0-2.29-2.78c-2.32 1.91-4.48 3.61-6.51 5.15a29.34 29.34 0 0 1 1.8 3.63zM81 33c1.16-.19 2.34-.38 3.55-.53.49-4.72 1.19-10.22 2.19-16.37v-.29a1.8 1.8 0 0 0-3.58-.29c-1.1 6.81-2.28 12.77-3.4 17.66zm28.8 36.38c3.9-1.36 8.66-2.81 14.25-4.18a1.8 1.8 0 0 0 1.38-1.75 2.1 2.1 0 0 0 0-.43 1.81 1.81 0 0 0-2.18-1.32c-4.4 1.08-8.28 1.86-11.67 2.42a33.42 33.42 0 0 1-1.79 5.22zM66.16 32.49c1.21.14 2.39.32 3.49.49l1.28.19c-1.12-4.91-2.31-10.87-3.41-17.69a1.8 1.8 0 0 0-3.58.29v.29c1.06 6.18 1.73 11.69 2.22 16.43zM124 85.32a139.75 139.75 0 0 1-19.21-6c-.14.28-.3.59-.41.86A17.66 17.66 0 0 0 103 85.3a130 130 0 0 1 20.24 3.52 1.82 1.82 0 0 0 2.18-1.32 2.18 2.18 0 0 0 0-.43 1.8 1.8 0 0 0-1.42-1.75zm-20.16 10a42 42 0 0 1 .5 6.74c3.12 2.22 6.71 4.94 10.74 8.26a1.8 1.8 0 1 0 2.29-2.78c-5.57-4.62-10.08-8.79-13.49-12.22zm-58-16.06a138.8 138.8 0 0 1-19.24 6.06 1.8 1.8 0 0 0-1.37 1.75 1.63 1.63 0 0 0 0 .43 1.8 1.8 0 0 0 2.18 1.32 129.74 129.74 0 0 1 20.26-3.52 16.46 16.46 0 0 0-1.78-6.04zM40.27 49A31.8 31.8 0 0 1 42 45.24c-2-1.52-4.14-3.2-6.43-5.08a1.8 1.8 0 0 0-2.53.25 1.76 1.76 0 0 0-.41 1.14 1.79 1.79 0 0 0 .65 1.39c2.56 2.06 4.89 4.12 6.99 6.06zM26.65 65.16C32.24 66.53 37 68 40.91 69.34a34.39 34.39 0 0 1-1.64-4.55c-.07-.23-.09-.48-.14-.71-3.38-.57-7.25-1.35-11.62-2.42A1.8 1.8 0 0 0 25.33 63a1.58 1.58 0 0 0 0 .43 1.8 1.8 0 0 0 1.32 1.73zm24.71-29.91A20.9 20.9 0 0 1 55 33.49c-1.71-2.87-3.53-6-5.43-9.52a1.8 1.8 0 0 0-3.38.86 1.91 1.91 0 0 0 .21.86c1.88 3.43 3.51 6.61 4.96 9.56zm-4.6 60.12c-3.41 3.43-7.9 7.57-13.48 12.17a1.8 1.8 0 0 0-.65 1.39 1.76 1.76 0 0 0 .41 1.14 1.8 1.8 0 0 0 2.53.25c4-3.26 7.5-5.95 10.6-8.15a41.4 41.4 0 0 1 .59-6.8zm39.58 25.9a14 14 0 0 0 3.35-1.68c4.55-3.28 8-9.78 8.41-15.79a38.15 38.15 0 0 0-.74-9.66 46.71 46.71 0 0 1-.75-6.09 22.33 22.33 0 0 1 2.06-10.36c.69-1.61 1.57-3.24 2.49-5 2.29-4.26 4.89-9.1 4.85-14.65a20.53 20.53 0 0 0-4.17-11.87c-1.5-2.11-4.68-5.85-9.15-7.22-3.46-1-7.15-.44-10.72.14a41.74 41.74 0 0 1-6.46.72 42.85 42.85 0 0 1-6.84-.69 30.87 30.87 0 0 0-8.35-.56c-7.71.89-13 8-14.9 14.61a18.57 18.57 0 0 0-.12 10 43.44 43.44 0 0 0 4.1 9.24c2.26 4.19 4.4 8.15 4.56 13a48.54 48.54 0 0 1-.79 9.36l-.14.9a30.07 30.07 0 0 0-.44 9.28c1.09 7.5 5.71 14.06 11.49 16.32 0 0 3.46 1.26 5.12 0s1.3-3.79 1-6c0-.29-.07-.56-.09-.82-.79-7.52-.53-13.71.72-17 .64-1.7 2.06-4.53 4.43-4.53h.08c1.75 0 2.7 1.28 3.74 3.41a17.16 17.16 0 0 1 1.8 6.83 38.94 38.94 0 0 1-.31 8.86c-.15 1.29-.3 2.62-.38 4-.17 2.65 0 4.59 1.21 5.46a3.27 3.27 0 0 0 1.85.51 9.37 9.37 0 0 0 3.09-.72zM68 96.4c-1.92 5-1.39 13.66-.9 18.35 0 .27.07.56.11.87a12.14 12.14 0 0 1 .12 3.21 6.69 6.69 0 0 1-2.2-.36c-4.73-1.86-8.68-7.6-9.61-14a27.73 27.73 0 0 1 .48-8.34l.16-1a50.82 50.82 0 0 0 .8-9.81C56.78 79.76 54.37 75.3 52 71a41.28 41.28 0 0 1-3.85-8.61 15.87 15.87 0 0 1 .16-8.39c1.59-5.67 6-11.71 12.36-12.44a28.74 28.74 0 0 1 7.54.54 47.14 47.14 0 0 0 7.31.73 43.61 43.61 0 0 0 6.93-.76c3.38-.55 6.58-1.07 9.36-.23 3.62 1.11 6.31 4.29 7.58 6.09A17.54 17.54 0 0 1 103 58.09c0 4.79-2.27 9.07-4.49 13.22-1 1.78-1.87 3.47-2.61 5.21a25.18 25.18 0 0 0-2.29 11.64 48.54 48.54 0 0 0 .78 6.48 35.15 35.15 0 0 1 .71 9 19.22 19.22 0 0 1-7.17 13.55 11.33 11.33 0 0 1-2.61 1.3 8 8 0 0 1-2.07.53 10.4 10.4 0 0 1-.06-2.81c.08-1.26.22-2.49.37-3.79a41.1 41.1 0 0 0 .31-9.53A19.94 19.94 0 0 0 81.79 95c-.79-1.61-2.44-5-6.36-5.08h-.16c-3.09.01-5.65 2.3-7.27 6.48zm18.25 18.46a16.42 16.42 0 0 0 6-11.45 32.7 32.7 0 0 0-.66-8.28 49.19 49.19 0 0 1-.83-6.86 28.15 28.15 0 0 1 2.52-12.86c.79-1.86 1.77-3.68 2.71-5.44 2.16-4 4.19-7.79 4.17-11.87a14.91 14.91 0 0 0-3.11-8.53 12.85 12.85 0 0 0-6.1-5 8.93 8.93 0 0 0-2.52-.32 36.22 36.22 0 0 0-5.57.64 46.64 46.64 0 0 1-7.51.79 49.86 49.86 0 0 1-7.61-.76 37 37 0 0 0-5.48-.6 11.5 11.5 0 0 0-1.31.07c-5 .58-8.67 5.8-10 10.41a13.11 13.11 0 0 0-.1 6.86 38.89 38.89 0 0 0 3.61 8C56.89 74 59.58 79 59.77 85.22a53 53 0 0 1-.85 10.42l-.14.92a25.43 25.43 0 0 0-.43 7.55c.64 4.42 3 8.56 6 10.68-.62-6-.91-14.16 1.08-19.39s5.61-8.29 9.88-8.29h.23c5.6.15 7.93 4.87 8.81 6.66a22.89 22.89 0 0 1 2.37 8.78 44.76 44.76 0 0 1-.32 10.15c-.08.76-.17 1.51-.24 2.27z" fill="#20c4f4" data-name="убирает кровоточивость дёсен"/></svg>