<svg xmlns="http://www.w3.org/2000/svg" viewBox="0 0 150 150"><path d="M88.93 113a15.07 15.07 0 0 1-1 1.28l-.12-.46c.38-.29.73-.57 1.12-.82zm-.93 1.35a15.74 15.74 0 0 0 1-1.3.12.12 0 0 0-.17-.17l-.51.36-.63.45a.11.11 0 0 0 0 .14l.06.22.06.25a.15.15 0 0 0 .1.09.18.18 0 0 0 .09-.04zm.33-.79c-.12.15-.24.3-.37.44a.74.74 0 0 0 0-.14zm7.4-.77a20.77 20.77 0 0 1-6.31 8 14.14 14.14 0 0 1-3.35 1.68 9.66 9.66 0 0 1-3.07.67 3.18 3.18 0 0 1-1.85-.51c-1.23-.86-1.38-2.8-1.21-5.45.08-1.33.23-2.66.38-4 .13-1.08.25-2.18.34-3.31-1.81.94-3.71 1.85-5.76 2.71q-2.88-1.22-5.44-2.54c.06 1.74.19 3.59.4 5.54 0 .25.06.53.09.81.28 2.26.6 4.82-1 6s-5.08 0-5.12 0c-3.94-1.55-7.33-5.08-9.44-9.55-20.82-17.02-22.57-40.03-22.57-64.1a1.5 1.5 0 0 1 .55-1.16 32.25 32.25 0 0 0 11.78-21.89 1.5 1.5 0 0 1 1.49-1.35h58.73a1.49 1.49 0 0 1 1.49 1.35 32.27 32.27 0 0 0 11.78 21.89 1.5 1.5 0 0 1 .55 1.16c0 24.03-1.74 47-22.45 64.05zm-.89-8a35.43 35.43 0 0 0-.7-8.93 48.79 48.79 0 0 1-.79-6.5 25.13 25.13 0 0 1 2.29-11.64c.74-1.74 1.65-3.43 2.61-5.22 2.22-4.14 4.53-8.42 4.49-13.22a17.64 17.64 0 0 0-3.61-10.15c-1.28-1.79-4-5-7.59-6.08-2.78-.85-6-.32-9.35.23a46.34 46.34 0 0 1-6.94.76 50.42 50.42 0 0 1-7.3-.73 28.82 28.82 0 0 0-7.55-.54c-6.33.72-10.77 6.77-12.36 12.44a15.88 15.88 0 0 0-.12 8.37 41.21 41.21 0 0 0 3.85 8.6c2.33 4.31 4.74 8.77 4.91 14.33a50.36 50.36 0 0 1-.79 9.75l-.17 1.07a27.7 27.7 0 0 0-.42 8.38c.92 6.36 4.87 12.1 9.6 14a6.46 6.46 0 0 0 2.2.37 12.23 12.23 0 0 0-.12-3.22c0-.3-.08-.6-.11-.87-.49-4.69-1-13.3.9-18.34 1.59-4.18 4.16-6.47 7.24-6.47h.16c3.91.1 5.56 3.46 6.35 5.08a20.19 20.19 0 0 1 2.1 7.83 41.61 41.61 0 0 1-.32 9.53c-.15 1.31-.29 2.54-.37 3.8a10.31 10.31 0 0 0 .06 2.8 7.72 7.72 0 0 0 2.07-.52 10.93 10.93 0 0 0 2.61-1.3 19.22 19.22 0 0 0 7.18-13.65zm3 .2a20 20 0 0 1-.27 2.15c16-15.69 17.58-36.21 17.61-57.65A35.21 35.21 0 0 1 103 27.34H47a35.23 35.23 0 0 1-12.18 22.11c0 21.48 1.64 42 17.71 57.74-.07-.36-.14-.73-.19-1.09a29 29 0 0 1 .38-8.94C41.59 84 40.78 67.6 40.78 51.58a27.76 27.76 0 0 0 10.09-18.76H99a27.69 27.69 0 0 0 10.09 18.76c0 15.9-.8 32.19-11.69 45.28a34.1 34.1 0 0 1 .45 8.14zm-7.23-19c0-.24 0-.49.07-.73s.08-.67.13-1 .06-.45.1-.66.12-.65.19-1 .08-.41.13-.6.15-.62.24-.93.09-.36.15-.54.19-.61.29-.91l.15-.46c.11-.33.23-.65.36-1l.12-.34c.17-.42.34-.84.51-1.24.79-1.86 1.77-3.68 2.71-5.44.81-1.5 1.6-3 2.27-4.44l.12-.27c.17-.39.35-.79.51-1.19.06-.15.11-.31.17-.47.12-.33.25-.66.35-1s.11-.4.16-.59.18-.59.24-.89.08-.45.12-.68.11-.53.14-.8 0-.49 0-.73V59.26a15 15 0 0 0-3.1-8.53 12.87 12.87 0 0 0-6.11-5 8.58 8.58 0 0 0-2.52-.32 37.4 37.4 0 0 0-5.57.63 46.48 46.48 0 0 1-7.5.8 48.59 48.59 0 0 1-7.62-.77 38.32 38.32 0 0 0-5.42-.61 11.2 11.2 0 0 0-1.3.07c-5 .57-8.68 5.79-10 10.4-.08.3-.16.6-.22.89l-.06.34c0 .19-.07.38-.1.57s0 .22 0 .34l-.06.57V59.73a10.56 10.56 0 0 0 .1 1.49v.09a11.9 11.9 0 0 0 .29 1.49 39.12 39.12 0 0 0 3.61 8c2.37 4.38 5.06 9.35 5.25 15.57v1.36c0 .78 0 1.52-.07 2.24v.33c-.05.68-.11 1.35-.18 2v.38c-.07.64-.15 1.27-.24 1.88l-.06.41c-.08.61-.17 1.22-.27 1.82l-.14.91a25.46 25.46 0 0 0-.43 7.55c.64 4.42 3 8.57 6 10.69a80.28 80.28 0 0 1-.45-9.3 34.14 34.14 0 0 1 1.14-9 .19.19 0 0 1 0-.07q.16-.55.36-1.08c2-5.26 5.61-8.28 9.88-8.28h.23c5.61.14 7.93 4.87 8.81 6.65a23 23 0 0 1 2.37 8.79c.1.94.12 1.83.14 2.71a53 53 0 0 1-.49 7.46c-.08.76-.17 1.51-.24 2.27L86 116a16.51 16.51 0 0 0 6-11.45 33.27 33.27 0 0 0-.67-8.29 50.58 50.58 0 0 1-.83-6.85v-2.45c.07-.34.09-.7.12-1.05z" fill="#f47920" data-name="защищает от кариеса"/></svg>