<svg xmlns="http://www.w3.org/2000/svg" viewBox="0 0 150 150"><path d="M96.3 91.74c-.1-.81-.18-1.65-.21-2.53a22.14 22.14 0 0 1 2.06-10.36c.68-1.61 1.56-3.24 2.48-5 2.3-4.26 4.89-9.1 4.86-14.66a20.69 20.69 0 0 0-4.17-11.86c-1.51-2.11-4.69-5.86-9.16-7.22-3.45-1-7.14-.45-10.71.14A44.48 44.48 0 0 1 75 41a46.48 46.48 0 0 1-6.83-.7 31.28 31.28 0 0 0-8.35-.56c-7.71.89-13 8-14.91 14.62a18.67 18.67 0 0 0-.12 10 44.17 44.17 0 0 0 4.1 9.24c2.27 4.19 4.41 8.14 4.56 13a35.65 35.65 0 0 1-.19 5 23.39 23.39 0 0 0-21.5-14.23H18.93v3h12.81a20.38 20.38 0 0 1 20.33 19.6 23.53 23.53 0 0 0 0 6.22c1.08 7.49 5.7 14.05 11.48 16.32 0 0 3.48 1.26 5.12 0s1.31-3.78 1-6c0-.28-.07-.56-.1-.81-.79-7.53-.52-13.71.72-17 .64-1.7 2.08-4.53 4.44-4.53h.08c1.74 0 2.69 1.28 3.73 3.4a17.12 17.12 0 0 1 1.81 6.83 39.61 39.61 0 0 1-.32 8.87c-.14 1.29-.3 2.62-.38 4-.16 2.65 0 4.59 1.22 5.45a3.15 3.15 0 0 0 1.84.51 9.59 9.59 0 0 0 3.07-.67 14.14 14.14 0 0 0 3.35-1.68c4.55-3.28 8-9.78 8.42-15.8a29.83 29.83 0 0 0 0-4.46 20.39 20.39 0 0 1 20.35-20.34h12.81v-3H117.9a23.4 23.4 0 0 0-21.6 14.46zm-1.71 13a19.27 19.27 0 0 1-7.18 13.56 10.93 10.93 0 0 1-2.61 1.3 7.63 7.63 0 0 1-2.07.52 10.8 10.8 0 0 1-.06-2.8c.08-1.26.22-2.49.37-3.8a41.61 41.61 0 0 0 .32-9.53 20 20 0 0 0-2.1-7.83c-.79-1.62-2.44-5-6.35-5.08h-.16c-3.08 0-5.65 2.29-7.24 6.47-1.92 5-1.38 13.65-.89 18.34 0 .27.06.56.1.87a11.82 11.82 0 0 1 .12 3.22 6.46 6.46 0 0 1-2.2-.37c-4.73-1.85-8.68-7.59-9.6-14a20.69 20.69 0 0 1 0-5h.1v-.73c.11-.9.24-1.79.38-2.63l.16-1.06a50.31 50.31 0 0 0 .8-9.75c-.18-5.56-2.59-10-4.92-14.33a41.21 41.21 0 0 1-3.85-8.6 15.88 15.88 0 0 1 .12-8.37c1.59-5.67 6-11.72 12.36-12.44a28.82 28.82 0 0 1 7.55.54A50.56 50.56 0 0 0 75 44a46.34 46.34 0 0 0 6.94-.76c3.38-.55 6.57-1.08 9.36-.23 3.61 1.1 6.3 4.29 7.58 6.08a17.73 17.73 0 0 1 3.62 10.15c0 4.8-2.27 9.08-4.5 13.22-1 1.79-1.87 3.48-2.61 5.22a25.26 25.26 0 0 0-2.29 11.64 48.79 48.79 0 0 0 .79 6.5c.27 1.56.52 3.09.66 4.71v.11a27.87 27.87 0 0 1 .04 4.11zm-1.8-28.18a28.1 28.1 0 0 0-2.52 12.86 50.58 50.58 0 0 0 .83 6.85 33.27 33.27 0 0 1 .67 8.29 16.51 16.51 0 0 1-6 11.45l-.16.11c.07-.76.16-1.51.24-2.27a43.63 43.63 0 0 0 .32-10.15 23 23 0 0 0-2.37-8.79c-.88-1.78-3.2-6.51-8.81-6.65h-.23c-4.27 0-7.88 3-9.88 8.28s-1.7 13.39-1.08 19.4c-2.94-2.12-5.33-6.27-6-10.69a25.46 25.46 0 0 1 .43-7.55l.14-.91a53.12 53.12 0 0 0 .85-10.42c-.19-6.22-2.88-11.19-5.25-15.57a39.12 39.12 0 0 1-3.61-8 13 13 0 0 1 .11-6.87c1.3-4.61 5-9.83 10-10.4a11.2 11.2 0 0 1 1.3-.07 38.32 38.32 0 0 1 5.48.59 48.59 48.59 0 0 0 7.62.77 46.48 46.48 0 0 0 7.5-.8 37.4 37.4 0 0 1 5.57-.63 8.58 8.58 0 0 1 2.52.32 12.87 12.87 0 0 1 6.11 5 15 15 0 0 1 3.1 8.53c0 4.07-2 7.86-4.17 11.87-.94 1.78-1.92 3.6-2.71 5.46zm52.75-13.75a1.5 1.5 0 0 1-1.51 1.5h-27.89a20.11 20.11 0 0 0-9.08 2.19 27.35 27.35 0 0 0 1.11-3.77 23.17 23.17 0 0 1 8-1.43H144a1.5 1.5 0 0 1 1.54 1.52zm-7.54 8a3 3 0 0 1-2.59 2.93H117.9c-.57 0-1.12 0-1.68.08h-.3c-.29 0-.59 0-.88.06a18.73 18.73 0 0 0-6.85 1.71 26.36 26.36 0 0 0-7.7 4.74c.2-.58.4-1.16.63-1.69.61-1.42 1.42-2.95 2.29-4.57l.07-.14c.64-1.18 1.29-2.4 1.92-3.67a24.5 24.5 0 0 1 10.74-2.49H135a3 3 0 0 1 3 3.09zM33.5 64.32H5.61a1.51 1.51 0 1 1 0-3H33.5a23.33 23.33 0 0 1 8 1.42c.07.35.11.72.21 1.06.25.93.55 1.83.88 2.7a20.09 20.09 0 0 0-9.09-2.18zm-1.76 9.47H14.23a3 3 0 0 1-2.59-2.93 3 3 0 0 1 3-3H33.5a24.64 24.64 0 0 1 10.77 2.5c.57 1.15 1.16 2.27 1.76 3.38a47 47 0 0 1 3.18 6.73 26.51 26.51 0 0 0-7.75-4.78A18.6 18.6 0 0 0 34.6 74c-.29 0-.59 0-.88-.06h-.3c-.56-.1-1.11-.15-1.68-.15z" fill="#b41e8e" data-name="защита дёсен"/></svg>