<svg xmlns="http://www.w3.org/2000/svg" viewBox="0 0 150 150"><path d="M105.15 108.41a1.51 1.51 0 0 1-1.47 1.21 1.53 1.53 0 0 1-.3 0h-.35l-.35-.06a1.5 1.5 0 0 1-1.16-1.78 1.52 1.52 0 0 1 1.78-1.16l.45.1h.22a1.5 1.5 0 0 1 1.18 1.69zM49.92 84.62a2.42 2.42 0 0 0-1.44-.49 1.5 1.5 0 0 0-1.09 2.71 2.35 2.35 0 0 0 1.48.51.82.82 0 0 0 .22 0 1.5 1.5 0 0 0 .83-2.75zM104.08 100l-.47-.07c-.2-.07-.38-.11-.52-.15a1.5 1.5 0 0 0-.72 2.91l.37.1.26.07h.26l.25.05a1.42 1.42 0 0 0 .29 0 1.5 1.5 0 0 0 .28-3zM90.46 44.36a8.56 8.56 0 0 0-2.52-.36 36.22 36.22 0 0 0-5.57.64 46.64 46.64 0 0 1-7.51.79 48.63 48.63 0 0 1-7.61-.76 36.9 36.9 0 0 0-5.47-.6 11.55 11.55 0 0 0-1.32.07 8.49 8.49 0 0 0-2.88.9 159 159 0 0 1 28.79 10.61c4.38 2.07 8.6 4.29 12.6 6.6a14.39 14.39 0 0 0 .7-4.35 14.91 14.91 0 0 0-3.11-8.53 12.77 12.77 0 0 0-6.1-5.01zm-30.32-3a28.74 28.74 0 0 1 7.54.54 41.82 41.82 0 0 0 7.31.73 43.61 43.61 0 0 0 6.93-.76c3.38-.55 6.58-1.07 9.37-.22 3.61 1.1 6.3 4.28 7.57 6.08a17.63 17.63 0 0 1 3.63 10.15 17.62 17.62 0 0 1-1 5.82c.89.53 1.76 1.07 2.62 1.61a21.18 21.18 0 0 0 1.43-7.45A20.63 20.63 0 0 0 101.31 46c-1.5-2.11-4.68-5.85-9.15-7.21-3.45-1-7.15-.45-10.72.13a41.74 41.74 0 0 1-6.46.72 42.61 42.61 0 0 1-6.83-.64 30.92 30.92 0 0 0-8.35-.56 15.61 15.61 0 0 0-9.57 5.07c1.17.22 2.37.46 3.58.72a12.14 12.14 0 0 1 6.33-2.86zM49.59 75.2l-.17-.13-.2-.11a1.5 1.5 0 1 0-1.61 2.52l.18.12.2.13a1.93 1.93 0 0 0 1 .28 1.38 1.38 0 0 0 1.16-.67 1.47 1.47 0 0 0-.5-2.11zm59.89 28.45a1.5 1.5 0 1 1 .38-3c5.21.67 7.5 0 7.89-.86s-.91-4.42-9.26-10.8a126.76 126.76 0 0 0-11.67-7.81 21.17 21.17 0 0 0-.74 6.64 46.5 46.5 0 0 0 .75 6.09 38.19 38.19 0 0 1 .74 9.66c-.4 6-3.85 12.51-8.41 15.79a14 14 0 0 1-3.35 1.69 9.59 9.59 0 0 1-3.07.67 3.15 3.15 0 0 1-1.84-.51c-1.24-.87-1.39-2.81-1.22-5.46.08-1.33.23-2.66.38-4a38.94 38.94 0 0 0 .31-8.86 17 17 0 0 0-1.8-6.83c-1-2.13-2-3.36-3.74-3.41-2.44 0-3.86 2.82-4.51 4.54-1.25 3.26-1.51 9.44-.72 17 0 .26.06.53.09.82.28 2.26.6 4.81-1 6s-5.08 0-5.12 0c-5.78-2.26-10.4-8.82-11.49-16.32a30.38 30.38 0 0 1 .44-9.28l.14-.9a48.54 48.54 0 0 0 .79-9.36c-.16-4.84-2.29-8.8-4.56-13A44.25 44.25 0 0 1 44.77 63a17.62 17.62 0 0 1-.58-3.7c-7.95-1.55-10.86-.55-11.26.3-.54 1.13 1.34 5.3 12.27 13a1.5 1.5 0 0 1-1.73 2.4c-10.54-7.42-15-13-13.25-16.73 3.7-7.8 32 2.17 50.17 10.78 11.78 5.59 22.41 11.83 29.92 17.56 8.29 6.33 11.7 11.2 10.15 14.48-.9 1.9-3.18 2.84-6.91 2.84a31.35 31.35 0 0 1-4.07-.28zm-15.33-24c-.82-.47-1.66-1-2.51-1.42a27.22 27.22 0 0 0-1.37 9.85 49.19 49.19 0 0 0 .83 6.86 32.7 32.7 0 0 1 .66 8.28 16.39 16.39 0 0 1-6 11.45l-.16.12c.07-.76.16-1.52.25-2.28a45.37 45.37 0 0 0 .31-10.15 22.89 22.89 0 0 0-2.37-8.78c-.88-1.78-3.2-6.51-8.81-6.65h-.23c-4.27 0-7.87 3-9.88 8.29s-1.7 13.39-1.08 19.4c-2.94-2.13-5.32-6.27-6-10.69a25.43 25.43 0 0 1 .43-7.55l.15-.92A53.81 53.81 0 0 0 59.24 85c-.19-6.2-2.88-11.16-5.24-15.55a39.43 39.43 0 0 1-3.61-8c-.07-.24-.12-.49-.17-.74-1-.27-2-.53-3-.76a16.39 16.39 0 0 0 .41 2.24 41.28 41.28 0 0 0 3.85 8.61c2.33 4.31 4.74 8.77 4.92 14.32a51.75 51.75 0 0 1-.81 9.82l-.16 1a28.05 28.05 0 0 0-.43 8.38c.93 6.36 4.88 12.1 9.61 14a7 7 0 0 0 2.2.37 11.79 11.79 0 0 0-.12-3.22c0-.31-.08-.6-.1-.87-.49-4.69-1-13.31.89-18.35 1.58-4.18 4.14-6.47 7.24-6.47h.16c3.91.1 5.56 3.47 6.35 5.08a20.14 20.14 0 0 1 2.1 7.84 41.63 41.63 0 0 1-.32 9.53c-.15 1.3-.29 2.53-.37 3.79a10.82 10.82 0 0 0 .06 2.81 7.88 7.88 0 0 0 2.07-.53 11.21 11.21 0 0 0 2.62-1.3 19.25 19.25 0 0 0 7.16-13.55 35.63 35.63 0 0 0-.7-9 46.74 46.74 0 0 1-.76-6.45 23.92 23.92 0 0 1 1.06-8.36zm28.29 2.74c-8.69-8.38-21.5-16.8-36.07-23.72s-29.2-11.52-41.18-12.96c-12.52-1.49-20.85.69-23.45 6.16-3.51 7.39 4.27 19 20.81 30.95a1.5 1.5 0 0 0 1.76-2.43C29.49 69.65 21.7 59 24.46 53.16c2-4.15 9.39-5.78 20.37-4.47l1.66.23a22.84 22.84 0 0 0-1.6 4.08c0 .11 0 .22-.08.33.95.18 1.93.4 2.93.64a1.24 1.24 0 0 1 0-.16 20.44 20.44 0 0 1 1.83-4.39c1 .17 1.93.36 2.92.57a17.89 17.89 0 0 0-2 4.59v.09a191.77 191.77 0 0 1 29.9 11.39c4.7 2.23 9.22 4.57 13.44 6.93.54-1.09 1.11-2.16 1.67-3.22.43-.78.84-1.55 1.23-2.32.83.47 1.64.94 2.45 1.42-.39.75-.79 1.5-1.19 2.24-.6 1.12-1.18 2.2-1.71 3.28.88.51 1.74 1 2.59 1.54a93.32 93.32 0 0 1 1.76-3.4c.37-.69.75-1.39 1.12-2.1a112 112 0 0 1 18.61 14.11c8 7.67 11.39 14.45 9.42 18.6s-9 5.68-19.44 4.57a1.49 1.49 0 0 0-1.65 1.33 1.51 1.51 0 0 0 1.31 1.66 59.89 59.89 0 0 0 6.19.35c8.53 0 14.22-2.29 16.28-6.62 2.62-5.43-.95-13.31-10.03-22.05z" fill="#d7df23" data-name="полирует эмаль"/></svg>