<svg width="27" height="27" fill="none" xmlns="http://www.w3.org/2000/svg"><path d="M13.5 0a13.5 13.5 0 1 0 0 27 13.5 13.5 0 0 0 0-27zm7.727 19.422l-2.376.03a1.726 1.726 0 0 1-1.17-.36c-.872-.601-1.713-2.195-2.375-1.984-.662.21-.631 1.623-.631 1.623a.742.742 0 0 1-.15.452.82.82 0 0 1-.482.21H12.99a5.993 5.993 0 0 1-4.386-2.015c-2.255-2.345-4.24-6.975-4.24-6.975s-.119-.3 0-.451a.78.78 0 0 1 .51-.18l2.525-.03c.15.02.292.072.421.15.101.074.175.18.21.3.286.678.607 1.34.963 1.984 1.053 1.835 1.56 2.226 1.924 2.047.51-.27.36-2.586.36-2.586a2.608 2.608 0 0 0-.27-1.203 1.14 1.14 0 0 0-.78-.39c-.15-.03.09-.36.39-.51a6.204 6.204 0 0 1 2.225-.24c.415-.019.83.021 1.233.119.873.21.571 1.022.571 2.977 0 .631-.12 1.503.33 1.804.181.12.663.03 1.864-1.985.383-.665.715-1.358.993-2.074a.74.74 0 0 1 .24-.3.543.543 0 0 1 .33-.06l2.677-.03s.811-.091.931.27c.15.39-.3 1.268-1.383 2.706-1.774 2.376-1.984 2.165-.51 3.548a8.574 8.574 0 0 1 1.773 2.047c.569 1.017-.664 1.107-.664 1.107z" fill="#2051C8"/></svg>