<svg width="27" height="25" viewBox="0 0 27 25" fill="none" xmlns="http://www.w3.org/2000/svg">
    <g clip-path="url(#clip0)">
        <path fill-rule="evenodd" clip-rule="evenodd"
              d="M13.5 0C10.83 0 8.21987 0.791761 5.99981 2.27516C3.77974 3.75856 2.04941 5.86697 1.02763 8.33377C0.00584936 10.8006 -0.261496 13.515 0.259405 16.1337C0.780305 18.7525 2.06606 21.1579 3.95406 23.0459C5.84207 24.9339 8.24754 26.2197 10.8663 26.7406C13.485 27.2615 16.1994 26.9942 18.6662 25.9724C21.133 24.9506 23.2414 23.2203 24.7248 21.0002C26.2082 18.7801 27 16.17 27 13.5C26.9966 9.9206 25.5732 6.48878 23.0422 3.95776C20.5112 1.42675 17.0794 0.003355 13.5 0ZM16.8229 8C18.6537 8 19.6124 8.27358 20.1316 8.94427C20.6533 9.61794 20.6923 10.6498 20.6923 12.147V14.853C20.6923 16.5687 20.4433 17.5597 19.8596 18.1667C19.2904 18.7586 18.4106 19 16.8229 19H10.177C6.90609 19 6.30769 17.6035 6.30769 14.853V12.147C6.30769 10.7273 6.30769 9.70148 6.81204 9.00528C7.32933 8.29123 8.30423 8 10.177 8H16.8229ZM12.5248 15.5875L15.5427 13.8736C15.696 13.7866 15.792 13.6141 15.7918 13.426C15.7916 13.2381 15.6951 13.0659 15.5416 12.9793L12.5237 11.2765C12.3799 11.1953 12.2075 11.2015 12.0689 11.293C11.9304 11.3845 11.8458 11.5478 11.8458 11.7239V15.1406C11.8458 15.3169 11.9306 15.4805 12.0694 15.5719C12.1432 15.6204 12.2264 15.6448 12.3098 15.6448C12.3835 15.6448 12.4573 15.6258 12.5248 15.5875Z"
              fill="#2051C8"/>
    </g>
</svg>
