<svg xmlns="http://www.w3.org/2000/svg" viewBox="0 0 150 150">
  <defs>
    <style>
      .cls-1 {
        fill: #9aca3c;
      }
    </style>
  </defs>
  <title>healing_herbs4</title>
  <g id="убирает_кровоточивость_дёсен" data-name="убирает кровоточивость дёсен">
    <path class="cls-1" d="M93,75.14A28.1,28.1,0,0,0,90.47,88a49.22,49.22,0,0,0,.83,6.85,33.28,33.28,0,0,1,.66,8.29,16.47,16.47,0,0,1-6,11.45l-.17.11c.08-.76.16-1.51.25-2.27a44.24,44.24,0,0,0,.31-10.15A22.77,22.77,0,0,0,84,93.49c-.88-1.78-3.2-6.51-8.81-6.65H75c-4.27,0-7.88,3-9.88,8.28s-1.7,13.39-1.08,19.4c-3-2.12-5.33-6.27-6-10.69a25.46,25.46,0,0,1,.43-7.55l.14-.91A53.12,53.12,0,0,0,59.44,85c-.19-6.22-2.88-11.19-5.25-15.58a38.65,38.65,0,0,1-3.61-8,13,13,0,0,1,.11-6.86c1.29-4.61,5-9.83,10-10.41A11.38,11.38,0,0,1,62,44a36.93,36.93,0,0,1,5.48.59,48.63,48.63,0,0,0,7.61.76,46.64,46.64,0,0,0,7.51-.79A36.12,36.12,0,0,1,88.14,44a8.58,8.58,0,0,1,2.52.32,12.85,12.85,0,0,1,6.1,5,14.9,14.9,0,0,1,3.1,8.53c0,4.07-2,7.86-4.16,11.87C94.76,71.46,93.78,73.28,93,75.14Zm37.91.71v3H118.09A20.37,20.37,0,0,0,97.74,99a30.58,30.58,0,0,1,0,4.51c-.4,6-3.86,12.52-8.41,15.79A14.16,14.16,0,0,1,86,121a9.65,9.65,0,0,1-3.09.67,3.1,3.1,0,0,1-1.82-.51c-1.25-.87-1.39-2.81-1.22-5.45.08-1.34.23-2.67.38-3.95a39,39,0,0,0,.31-8.87,17.14,17.14,0,0,0-1.8-6.83c-1-2.12-2-3.36-3.74-3.4-2.42,0-3.87,2.81-4.52,4.53-1.24,3.26-1.5,9.44-.71,17,0,.26.06.53.09.82.28,2.26.6,4.82-1,6s-5.08,0-5.11,0c-5.79-2.27-10.4-8.83-11.49-16.32a23.81,23.81,0,0,1,0-6,20.37,20.37,0,0,0-20.3-19.2H19.11v-3H31.93A23.41,23.41,0,0,1,53.38,90.62a36.89,36.89,0,0,0,.24-5.49c-.15-4.85-2.29-8.8-4.55-13A44.2,44.2,0,0,1,45,62.9a18.7,18.7,0,0,1,.13-10C47,46.29,52.28,39.2,60,38.31a31.28,31.28,0,0,1,8.35.56,46.62,46.62,0,0,0,6.83.69,43,43,0,0,0,6.47-.71c3.57-.59,7.26-1.19,10.72-.14,4.47,1.36,7.65,5.11,9.15,7.22a20.52,20.52,0,0,1,4.17,11.86c0,5.56-2.56,10.4-4.85,14.66-.93,1.73-1.8,3.35-2.49,5a22.08,22.08,0,0,0-2.06,10.36c0,.88.12,1.71.21,2.52a23.41,23.41,0,0,1,21.6-14.45ZM94.74,99.21h0v-.16c-.14-1.61-.39-3.12-.65-4.67a47.23,47.23,0,0,1-.79-6.49,25.12,25.12,0,0,1,2.29-11.65c.74-1.74,1.65-3.42,2.61-5.21,2.22-4.14,4.52-8.42,4.49-13.22a17.64,17.64,0,0,0-3.62-10.15c-1.27-1.8-4-5-7.58-6.08-2.78-.85-6-.33-9.36.23a44.81,44.81,0,0,1-6.93.75,46.32,46.32,0,0,1-7.31-.72,28.77,28.77,0,0,0-7.54-.55C54,42,49.57,48.07,48,53.74a16,16,0,0,0-.11,8.37,41.21,41.21,0,0,0,3.85,8.6C54,75,56.45,79.48,56.62,85a50.71,50.71,0,0,1-.8,9.8l-.16,1c-.14.9-.29,1.84-.4,2.81,0,.4,0,.8,0,1.21h-.15a19.46,19.46,0,0,0,.09,4.37c.92,6.36,4.88,12.1,9.61,14a6.43,6.43,0,0,0,2.2.37,12.25,12.25,0,0,0-.13-3.22c0-.31-.07-.6-.1-.87-.49-4.69-1-13.31.9-18.35C69.29,92,71.86,89.65,75,89.65h.15c3.92.1,5.57,3.46,6.36,5.08a20,20,0,0,1,2.09,7.83,41.1,41.1,0,0,1-.31,9.53c-.15,1.31-.29,2.54-.37,3.79a10.3,10.3,0,0,0,.06,2.81,7.53,7.53,0,0,0,2.07-.53,10.94,10.94,0,0,0,2.61-1.29,19.22,19.22,0,0,0,7.17-13.56A26.56,26.56,0,0,0,94.74,99.21ZM39.58,92.52a6.78,6.78,0,1,1-6.77-6.78A6.78,6.78,0,0,1,39.58,92.52Zm-3,0a3.78,3.78,0,1,0-3.77,3.78A3.78,3.78,0,0,0,36.58,92.52Zm89.15-3.2a5.46,5.46,0,1,1-5.46-5.46A5.46,5.46,0,0,1,125.73,89.32Zm-3,0a2.46,2.46,0,1,0-2.46,2.45A2.46,2.46,0,0,0,122.73,89.32ZM48.82,104.39a5.46,5.46,0,1,1-5.46-5.45A5.47,5.47,0,0,1,48.82,104.39Zm-3,0a2.46,2.46,0,1,0-2.46,2.46A2.46,2.46,0,0,0,45.82,104.39Zm70.68-2.26a6.78,6.78,0,1,1-6.78-6.78A6.79,6.79,0,0,1,116.5,102.13Zm-3,0a3.78,3.78,0,1,0-3.78,3.78A3.79,3.79,0,0,0,113.5,102.13Z"/>
  </g>
</svg>
