<svg xmlns="http://www.w3.org/2000/svg" viewBox="0 0 150 150">
  <defs>
    <style>
      .cls-1 {
        fill: #b41e8e;
      }
    </style>
  </defs>
  <title>healthy_gums3</title>
  <g id="укрепляет_эмаль" data-name="укрепляет эмаль">
    <path class="cls-1" d="M83.43,120.26a3.16,3.16,0,0,1-1.8-.48c-1.26-.85-1.41-2.74-1.24-5.32.08-1.28.23-2.56.38-3.8a35.88,35.88,0,0,0,.31-8.5,15.93,15.93,0,0,0-1.79-6.54c-1-2-2-3.22-3.75-3.26h-.08c-2.38,0-3.8,2.71-4.44,4.34-1.24,3.12-1.5,9-.71,16.27,0,.24.06.5.09.78.27,2.09.61,4.69-1.05,5.88s-5,0-5.07,0c-5.79-2.19-10.41-8.51-11.51-15.74a28,28,0,0,1,.44-9l.14-.87a45.28,45.28,0,0,0,.79-9c-.16-4.63-2.29-8.42-4.55-12.44a41.54,41.54,0,0,1-4.11-8.91,17.41,17.41,0,0,1,.12-9.65C47.47,47.67,52.8,40.84,60.51,40h0a32,32,0,0,1,8.34.53,47.89,47.89,0,0,0,6.84.67,44.41,44.41,0,0,0,6.47-.69c3.56-.56,7.25-1.14,10.69-.14,4.47,1.31,7.65,4.92,9.15,7a19.34,19.34,0,0,1,4.19,11.47c0,5.37-2.56,10-4.86,14.14-.93,1.66-1.8,3.22-2.48,4.77a20.45,20.45,0,0,0-2.06,9.91,42.9,42.9,0,0,0,.75,5.84,35.54,35.54,0,0,1,.74,9.32A21.46,21.46,0,0,1,89.85,118a14.52,14.52,0,0,1-3.35,1.62A10,10,0,0,1,83.43,120.26Zm-8-30.9h.15c3.9.1,5.56,3.34,6.35,4.9a18.9,18.9,0,0,1,2.1,7.57,38.15,38.15,0,0,1-.31,9.18c-.15,1.26-.29,2.44-.37,3.65a10.31,10.31,0,0,0,.05,2.63,7.92,7.92,0,0,0,2.1-.51,11.44,11.44,0,0,0,2.62-1.25,18.29,18.29,0,0,0,7.14-13,32.84,32.84,0,0,0-.7-8.59,43.49,43.49,0,0,1-.79-6.24,23.48,23.48,0,0,1,2.3-11.24c.74-1.68,1.65-3.3,2.61-5,2.22-4,4.51-8.08,4.48-12.67a16.44,16.44,0,0,0-3.6-9.7c-1.28-1.73-4-4.78-7.58-5.85-2.8-.81-6-.31-9.39.22a46.08,46.08,0,0,1-6.92.73,47.55,47.55,0,0,1-7.3-.7A30.18,30.18,0,0,0,60.84,43h0c-6.33.7-10.77,6.5-12.36,11.94a14.55,14.55,0,0,0-.11,8,38.2,38.2,0,0,0,3.84,8.26C54.54,75.31,57,79.6,57.13,85a47.58,47.58,0,0,1-.8,9.48l-.16.94a25.8,25.8,0,0,0-.43,8c.92,6.1,4.87,11.6,9.59,13.38a6.58,6.58,0,0,0,2.23.35,11.58,11.58,0,0,0-.13-3c0-.29-.08-.58-.11-.84-.49-4.52-1-12.83.91-17.69C69.81,91.57,72.37,89.36,75.46,89.36Zm11,24a15.64,15.64,0,0,0,6-11,30.81,30.81,0,0,0-.66-8A45.33,45.33,0,0,1,91,87.82,26.19,26.19,0,0,1,93.5,75.45c.79-1.78,1.77-3.53,2.71-5.23,2.16-3.85,4.19-7.49,4.17-11.41a14,14,0,0,0-3.11-8.2,12.69,12.69,0,0,0-6.1-4.83,9,9,0,0,0-2.52-.31,38.55,38.55,0,0,0-5.57.61,47.93,47.93,0,0,1-7.51.76A51.33,51.33,0,0,1,68,46.11a38.11,38.11,0,0,0-5.48-.57,11.49,11.49,0,0,0-1.31.06c-5,.56-8.68,5.58-10,10a12.06,12.06,0,0,0-.1,6.6,36.73,36.73,0,0,0,3.61,7.7c2.37,4.22,5.06,9,5.25,15a49.81,49.81,0,0,1-.85,10l-.15.88a23.85,23.85,0,0,0-.42,7.26,15.71,15.71,0,0,0,6,10.28c-.62-5.78-.92-13.62,1.08-18.66s5.61-8,9.88-8h.23c5.6.13,7.93,4.68,8.81,6.4a21.19,21.19,0,0,1,2.36,8.45,40.82,40.82,0,0,1-.31,9.75q-.14,1.09-.24,2.19ZM47,94a33.89,33.89,0,0,0-.45,10.72,11.6,11.6,0,0,0,6.16,8.5,25.35,25.35,0,0,1-3.17-8.91A31.26,31.26,0,0,1,50,94.41l.14-.82a41.2,41.2,0,0,0,.75-8.43c-.13-3.93-2.09-7.41-4.17-11.12a43.82,43.82,0,0,1-4.39-9.56,20.62,20.62,0,0,1,.13-11.23C44.65,45.88,51,38,60.14,37a21.66,21.66,0,0,1,2.34-.12,46.76,46.76,0,0,1,6.88.67,42.33,42.33,0,0,0,6.17.63,40.46,40.46,0,0,0,6.13-.65,44.26,44.26,0,0,1,7-.72,18,18,0,0,1,5.16.69,21.46,21.46,0,0,1,10.83,8.1,22.29,22.29,0,0,1,4.78,13.2c0,6.14-2.76,11.16-5.23,15.56l-.14.26c-.84,1.51-1.63,2.93-2.23,4.28A17.86,17.86,0,0,0,100,87.5a36.87,36.87,0,0,0,.71,5.45,38.32,38.32,0,0,1,.77,10,23.23,23.23,0,0,1-2.75,9.3,11.49,11.49,0,0,0,5.76-9.08,41.7,41.7,0,0,0-.83-10.8,34.6,34.6,0,0,1-.65-5A15,15,0,0,1,104.6,80c.54-1.22,1.3-2.59,2.23-4.28,2.52-4.49,5.65-10.08,5.61-17a25,25,0,0,0-5.34-14.84,24.49,24.49,0,0,0-12.43-9.21,21.42,21.42,0,0,0-6-.81,47.21,47.21,0,0,0-7.55.77,37.8,37.8,0,0,1-5.53.6,40.5,40.5,0,0,1-5.75-.59,39.06,39.06,0,0,0-10-.57C49.22,35.25,42,44.15,39.59,52.46a23.2,23.2,0,0,0-.14,12.82,47.09,47.09,0,0,0,4.64,10.15c2,3.53,3.7,6.58,3.81,9.81a39.88,39.88,0,0,1-.7,7.83Zm65.1-15.52c2.7-4.81,6.38-11.39,6.33-19.77A30.54,30.54,0,0,0,112,40.53a30.51,30.51,0,0,0-15.61-11.4,27.41,27.41,0,0,0-7.76-1.06,54.3,54.3,0,0,0-8.53.84,30.63,30.63,0,0,1-4.55.53,36.1,36.1,0,0,1-4.82-.52,45.21,45.21,0,0,0-11.65-.6C45.75,29.8,36.77,40.72,33.78,50.88a28.77,28.77,0,0,0-.14,15.93A52.3,52.3,0,0,0,38.79,78.2c1.69,3,3,5.36,3.08,7.22a34.16,34.16,0,0,1-.63,6.73l-.16.93a39.18,39.18,0,0,0-.46,12.44c1.27,8.51,9,14.93,17.9,14.93.37,0,.75,0,1.13-.08A20.07,20.07,0,0,1,56,117.28a14.76,14.76,0,0,1-12.39-12.17,36.34,36.34,0,0,1,.45-11.57l.16-.94a36.63,36.63,0,0,0,.66-7.27c-.08-2.54-1.57-5.18-3.45-8.53a50.14,50.14,0,0,1-4.88-10.75,26,26,0,0,1,.13-14.38c2.71-9.23,10.8-19.14,22.77-20.47a42.19,42.19,0,0,1,10.94.6,37.54,37.54,0,0,0,5.19.54,33,33,0,0,0,5-.57,51.63,51.63,0,0,1,8-.8,24.62,24.62,0,0,1,6.89.93,27.55,27.55,0,0,1,14,10.31,27.81,27.81,0,0,1,5.88,16.5c0,7.64-3.42,13.84-6,18.42-.91,1.62-1.62,2.9-2.1,4A12.4,12.4,0,0,0,106,87.29a35.27,35.27,0,0,0,.61,4.6,43.85,43.85,0,0,1,.87,11.47c-.46,6.48-5.45,11.64-11.77,13.06a21.12,21.12,0,0,1-3.43,3.33c9.46,0,17.55-7,18.21-16.19a46.89,46.89,0,0,0-.91-12.17,34.68,34.68,0,0,1-.57-4.21,9.58,9.58,0,0,1,1.1-4.93C110.59,81.26,111.27,80.05,112.14,78.46Z"/>
  </g>
</svg>
