<svg xmlns="http://www.w3.org/2000/svg" viewBox="0 0 150 150">
  <defs>
    <style>
      .cls-1 {
        fill: #f9c0c7;
      }
    </style>
  </defs>
  <title>sensitive4</title>
  <g id="устраняет_чувствительность_зубов" data-name="устраняет чувствительность зубов">
    <path class="cls-1" d="M43.9,47.22a1.51,1.51,0,0,1,.22,1.45,1.49,1.49,0,0,1-1.12.95l-13.8,2.7L42.48,57A1.49,1.49,0,0,1,43,59.44L32.87,69.18l8.65-2.08a1.5,1.5,0,0,1,.7,2.92l-14,3.37a1.45,1.45,0,0,1-.35,0,1.5,1.5,0,0,1-1-2.58L39.18,59,23,53.32a1.49,1.49,0,0,1,.21-2.88L40,47.14,29.46,33.62a1.49,1.49,0,0,1,1.73-2.31l16,6.33L45.55,20.56a1.5,1.5,0,0,1,2.71-1l10,13.94,7.91-15.22a1.49,1.49,0,0,1,2.82.61l.78,15.34a1.5,1.5,0,1,1-3,.15l-.49-9.81L59.79,37.05a1.5,1.5,0,0,1-2.55.18L49.05,25.8l1.3,14a1.48,1.48,0,0,1-.59,1.34,1.5,1.5,0,0,1-1.46.19L35.23,36.14Zm40.41,47A22.72,22.72,0,0,1,86.67,103a43.57,43.57,0,0,1-.31,10.14q-.14,1.14-.24,2.28l.16-.12a16.47,16.47,0,0,0,6-11.45,33.62,33.62,0,0,0-.67-8.28,50.74,50.74,0,0,1-.83-6.86,28.15,28.15,0,0,1,2.52-12.86C94.1,74,95.08,72.18,96,70.41c2.16-4,4.19-7.79,4.17-11.87A15,15,0,0,0,97.09,50,12.79,12.79,0,0,0,91,45a8.56,8.56,0,0,0-2.52-.33,36.22,36.22,0,0,0-5.57.64,46.52,46.52,0,0,1-7.51.79,48.63,48.63,0,0,1-7.61-.76,37,37,0,0,0-5.48-.6,11.38,11.38,0,0,0-1.31.07c-5,.58-8.68,5.8-10,10.41a13,13,0,0,0-.11,6.86,38.89,38.89,0,0,0,3.61,8c2.37,4.39,5.06,9.35,5.25,15.57a53,53,0,0,1-.85,10.42l-.14.92a25.43,25.43,0,0,0-.43,7.55c.64,4.42,3,8.56,6,10.69-.62-6-.92-14.16,1.08-19.4s5.61-8.29,9.88-8.29h.23C81.11,87.7,83.43,92.43,84.31,94.21Zm-9-.84c-2.37,0-3.8,2.84-4.45,4.54-1.24,3.26-1.5,9.44-.71,17,0,.26.06.53.09.82.28,2.26.6,4.81-1,6s-5.09,0-5.12,0c-5.79-2.26-10.4-8.82-11.48-16.32A29.78,29.78,0,0,1,53,96.1L53.18,95a47.08,47.08,0,0,0,.76-9.19c-.15-4.85-2.29-8.81-4.55-13a43.44,43.44,0,0,1-4.1-9.24,18.57,18.57,0,0,1,.12-10C47.27,47,52.6,39.92,60.31,39a31,31,0,0,1,8.36.56,40.64,40.64,0,0,0,6.82.69A41.73,41.73,0,0,0,82,39.56c3.58-.58,7.27-1.18,10.72-.13,4.46,1.36,7.65,5.1,9.15,7.21A20.57,20.57,0,0,1,106,58.51c0,5.56-2.56,10.39-4.85,14.66-.93,1.72-1.8,3.35-2.49,5a22.16,22.16,0,0,0-2,10.36,43.61,43.61,0,0,0,.75,6.11,39,39,0,0,1,.74,9.64c-.41,6-3.87,12.51-8.42,15.79a14,14,0,0,1-3.35,1.69,9.66,9.66,0,0,1-3.07.67,3.18,3.18,0,0,1-1.85-.51c-1.24-.87-1.38-2.81-1.21-5.46.08-1.33.23-2.66.38-3.94a39,39,0,0,0,.31-8.87,17.14,17.14,0,0,0-1.8-6.83c-1-2.12-2-3.36-3.74-3.41Zm0-3h.16c3.9.11,5.55,3.47,6.35,5.09a20,20,0,0,1,2.09,7.83,41.1,41.1,0,0,1-.31,9.53c-.15,1.3-.29,2.54-.37,3.79a10.34,10.34,0,0,0,.06,2.81,8,8,0,0,0,2.07-.53,11.32,11.32,0,0,0,2.61-1.29A19.27,19.27,0,0,0,95.1,104a35.51,35.51,0,0,0-.7-8.94,47.19,47.19,0,0,1-.79-6.5A25.16,25.16,0,0,1,95.9,77c.74-1.74,1.65-3.43,2.61-5.21,2.22-4.14,4.52-8.43,4.49-13.22a17.69,17.69,0,0,0-3.61-10.15c-1.28-1.8-4-5-7.59-6.08-2.78-.85-6-.33-9.35.22a43.87,43.87,0,0,1-6.94.76,45.26,45.26,0,0,1-7.31-.73A28.74,28.74,0,0,0,60.66,42c-6.33.73-10.77,6.78-12.37,12.44a16,16,0,0,0-.11,8.37A41.28,41.28,0,0,0,52,71.43c2.33,4.31,4.74,8.77,4.91,14.32a50.36,50.36,0,0,1-.79,9.75L56,96.57a27.42,27.42,0,0,0-.42,8.38c.92,6.37,4.86,12.1,9.6,14a6.68,6.68,0,0,0,2.2.37,12.22,12.22,0,0,0-.13-3.22c0-.31-.07-.6-.1-.87-.49-4.69-1-13.31.9-18.35C69.62,92.66,72.19,90.37,75.27,90.37Zm40.27,16.7-10.62-4.7,6.92-9.54a1.51,1.51,0,0,0-1.45-2.37l-7,1.1a1.5,1.5,0,0,0,.46,3l3.44-.54-5.88,8.12h0l0,0c0,.08-.09.16-.13.24h0v0a2,2,0,0,0-.08.26s0,.08,0,.13a.78.78,0,0,0,0,.16s0,.1,0,.16a.49.49,0,0,1,0,.12c0,.06,0,.11,0,.16a.56.56,0,0,0,0,.12.52.52,0,0,0,.06.13l.06.13.09.12.09.12.12.1.1.09h0l.27.16,9,4L101.76,112a1.56,1.56,0,0,0-.5.33l-.05.06-.14.16-.07.14a.67.67,0,0,0-.06.12.58.58,0,0,0,0,.14l0,.13c0,.05,0,.09,0,.13a.78.78,0,0,1,0,.16.68.68,0,0,0,0,.14.76.76,0,0,0,0,.15,1.55,1.55,0,0,0,.06.23s0,0,0,.06h0a1.74,1.74,0,0,0,.14.27l5.38,8.24-9.73-1.93-.25,0h0a1.49,1.49,0,0,0-1.41,1l-.06.18h0a1.94,1.94,0,0,0,0,.24s0,0,0,.06h0l0,9.83L87.84,125h0l-.22-.18a1.43,1.43,0,0,0-.28-.13h0a1.54,1.54,0,0,0-.56-.1h0a1.75,1.75,0,0,0-.56.12h0a1.45,1.45,0,0,0-.48.34h0a1,1,0,0,0-.18.22l-5.37,8.28L78,124a1.5,1.5,0,0,0-2.93.66l3,13.07a1.53,1.53,0,0,0,1.2,1.14l.27,0a1.51,1.51,0,0,0,1.26-.68l6.31-9.74,8.33,8.08a1.47,1.47,0,0,0,1,.42,1.52,1.52,0,0,0,.59-.12,1.5,1.5,0,0,0,.91-1.38V123.85l11.43,2.27a1.43,1.43,0,0,0,.29,0,1.51,1.51,0,0,0,1.26-2.32l-6.33-9.69,10.91-4.31a1.5,1.5,0,0,0,.06-2.76Z"/>
  </g>
</svg>
