<svg xmlns="http://www.w3.org/2000/svg" viewBox="0 0 150 150">
  <defs>
    <style>
      .cls-1 {
        fill: #62c3a5;
      }
    </style>
  </defs>
  <title>supermint4</title>
  <g id="восстанавливает_естественную_белизну" data-name="восстанавливает естественную белизну">
    <path class="cls-1" d="M113.88,25.71a6,6,0,0,0-8.47.94L94.26,40.57a13.17,13.17,0,0,0-2.08-.86A19,19,0,0,0,84,39.47l-.89-1.14a6,6,0,0,0-8.45-1,6,6,0,0,0-2.1,3.15c-1.47-.13-2.92-.34-4.34-.56a31.28,31.28,0,0,0-8.35-.56c-7.71.89-13,8-14.91,14.61a18.7,18.7,0,0,0-.12,10,43.69,43.69,0,0,0,4.11,9.24c2.26,4.19,4.4,8.14,4.55,13a47.18,47.18,0,0,1-.76,9.2l-.17,1a30.14,30.14,0,0,0-.43,9.29c1.09,7.49,5.7,14,11.49,16.32,0,0,3.47,1.26,5.11,0s1.31-3.78,1-6c0-.29-.07-.57-.1-.82-.79-7.53-.52-13.71.72-17,.65-1.72,2.14-4.62,4.52-4.53,1.75,0,2.69,1.28,3.73,3.4a17.17,17.17,0,0,1,1.81,6.83,39.7,39.7,0,0,1-.32,8.88c-.14,1.28-.3,2.61-.38,3.94-.16,2.65,0,4.59,1.22,5.45a3.13,3.13,0,0,0,1.83.52,9.61,9.61,0,0,0,3.08-.68,13.6,13.6,0,0,0,3.35-1.69c4.55-3.27,8-9.77,8.42-15.79a38.49,38.49,0,0,0-.74-9.64,45,45,0,0,1-.75-6.1,22.11,22.11,0,0,1,2.06-10.36c.68-1.61,1.56-3.24,2.48-5,2.3-4.27,4.89-9.11,4.86-14.67a19.49,19.49,0,0,0-2.73-9.58l12-15A6,6,0,0,0,113.88,25.71ZM91.31,42.58a9,9,0,0,1,1,.4l-1.84,2.3h0A8.31,8.31,0,0,0,88.22,45L86.1,42.23A13.62,13.62,0,0,1,91.31,42.58Zm11.2,16.23c0,4.8-2.27,9.08-4.5,13.23-1,1.78-1.86,3.47-2.6,5.2a25.18,25.18,0,0,0-2.3,11.65,48.79,48.79,0,0,0,.79,6.5,35.41,35.41,0,0,1,.71,8.93,19.29,19.29,0,0,1-7.18,13.56,11.32,11.32,0,0,1-2.61,1.29,7.05,7.05,0,0,1-2.07.53,10.77,10.77,0,0,1-.06-2.8c.08-1.26.22-2.49.37-3.79a41.63,41.63,0,0,0,.32-9.53,19.9,19.9,0,0,0-2.1-7.84c-.79-1.62-2.44-5-6.35-5.08h-.15c-3.09,0-5.66,2.29-7.25,6.46-1.92,5-1.38,13.66-.89,18.35,0,.27.06.57.1.87a11.82,11.82,0,0,1,.12,3.22,6.37,6.37,0,0,1-2.19-.37c-4.74-1.85-8.69-7.59-9.61-14a27.46,27.46,0,0,1,.43-8.39l.16-1.07a50.17,50.17,0,0,0,.8-9.75c-.17-5.55-2.58-10-4.92-14.32a40.65,40.65,0,0,1-3.84-8.6,15.77,15.77,0,0,1,.11-8.37c1.59-5.67,6-11.72,12.36-12.45a29.28,29.28,0,0,1,7.55.55c1.54.23,3.13.46,4.75.59a5.83,5.83,0,0,0,1.1,2.3l.49.63a53.9,53.9,0,0,1-6.78-.74A36.67,36.67,0,0,0,61.8,45a9.5,9.5,0,0,0-1.31.07c-5,.57-8.68,5.79-10,10.4a13,13,0,0,0-.1,6.87,39.07,39.07,0,0,0,3.6,8c2.38,4.38,5.06,9.35,5.26,15.57a53.83,53.83,0,0,1-.85,10.42l-.14.91a25.12,25.12,0,0,0-.43,7.55c.64,4.42,3,8.57,6,10.69-.62-6-.91-14.16,1.09-19.4s5.6-8.28,9.87-8.28H75c5.61.14,7.93,4.87,8.81,6.65a23,23,0,0,1,2.37,8.79,44.24,44.24,0,0,1-.31,10.15c-.09.76-.18,1.51-.25,2.27l.17-.11a16.48,16.48,0,0,0,6-11.45,33.27,33.27,0,0,0-.67-8.29A49.3,49.3,0,0,1,90.3,89a28.16,28.16,0,0,1,2.51-12.86c.8-1.86,1.77-3.68,2.72-5.44,2.15-4,4.18-7.79,4.16-11.87a12.73,12.73,0,0,0-.94-4.6l2-2.47A16.17,16.17,0,0,1,102.51,58.81Zm10-26.51L91.76,58.17a3,3,0,0,1-2.37,1.13v1.5l0-1.5A3,3,0,0,1,87,58.13L75.93,43.89a3,3,0,0,1,4.77-3.72L89.43,51.4l18.32-22.88a3,3,0,0,1,4.25-.47A3,3,0,0,1,112.47,32.3Z"/>
  </g>
</svg>
