<svg width="27" height="27" viewBox="0 0 27 27" fill="none" xmlns="http://www.w3.org/2000/svg">
<path d="M13.5 3.51971e-08C10.83 3.51971e-08 8.21987 0.791761 5.99981 2.27516C3.77974 3.75856 2.04941 5.86697 1.02763 8.33377C0.00584934 10.8006 -0.261496 13.515 0.259405 16.1337C0.780305 18.7525 2.06606 21.1579 3.95406 23.0459C5.84207 24.9339 8.24754 26.2197 10.8663 26.7406C13.485 27.2615 16.1994 26.9942 18.6662 25.9724C21.133 24.9506 23.2414 23.2203 24.7248 21.0002C26.2082 18.7801 27 16.17 27 13.5C27.0001 11.7271 26.651 9.97157 25.9726 8.33362C25.2942 6.69567 24.2998 5.20739 23.0462 3.95377C21.7926 2.70016 20.3043 1.70576 18.6664 1.02737C17.0284 0.348972 15.2729 -0.000127985 13.5 3.51971e-08ZM21.2267 19.4225L18.8513 19.4527C18.4304 19.4794 18.0143 19.3511 17.6816 19.092C16.8092 18.4906 15.968 16.8969 15.3062 17.1075C14.6443 17.318 14.6746 18.7314 14.6746 18.7314C14.6754 18.8942 14.6227 19.0528 14.5244 19.1827C14.3914 19.3038 14.2222 19.3778 14.0429 19.3932H12.9902C12.1594 19.3799 11.3403 19.1939 10.5852 18.8471C9.8301 18.5002 9.15538 18.0001 8.60394 17.3784C6.34939 15.0332 4.36484 10.4033 4.36484 10.4033C4.36484 10.4033 4.24495 10.1031 4.36484 9.95198C4.50757 9.83321 4.68799 9.76927 4.87365 9.77166L7.39917 9.74144C7.54819 9.7627 7.6914 9.81375 7.82026 9.89155C7.92116 9.96612 7.99506 10.0715 8.0308 10.1918C8.31607 10.8699 8.63721 11.5323 8.99286 12.1763C10.0456 14.0108 10.5524 14.4016 10.917 14.2232C11.4277 13.9523 11.2776 11.6373 11.2776 11.6373C11.2847 11.2205 11.1918 10.808 11.0066 10.4345C10.8086 10.2064 10.5282 10.0661 10.2269 10.0446C10.0768 10.0144 10.3175 9.68393 10.6168 9.53382C11.3378 9.31932 12.0918 9.23774 12.8421 9.29307C13.2567 9.27506 13.6717 9.31541 14.0751 9.41296C14.9475 9.6235 14.6463 10.4354 14.6463 12.3898C14.6463 13.0214 14.5264 13.8928 14.9767 14.194C15.157 14.3139 15.6386 14.2242 16.8404 12.2095C17.2228 11.5439 17.5545 10.8506 17.8327 10.1352C17.8851 10.0157 17.9681 9.91213 18.0734 9.83502C18.1744 9.78045 18.2901 9.75929 18.4039 9.77458L21.0795 9.74437C21.0795 9.74437 21.8914 9.65372 22.0113 10.0153C22.1614 10.4052 21.7111 11.2825 20.6282 12.7212C18.8542 15.0966 18.6436 14.8861 20.1174 16.2692C20.8135 16.8532 21.4123 17.5442 21.8914 18.3161C22.4597 19.3328 21.2267 19.4225 21.2267 19.4225Z" fill="#2051C8"/>
</svg>
