<svg xmlns="http://www.w3.org/2000/svg" viewBox="0 0 150 150">
  <defs>
    <style>
      .cls-1 {
        fill: #d7df23;
      }
    </style>
  </defs>
  <title>fresh_breath3</title>
  <g id="свежее_дыхание" data-name="свежее дыхание">
    <path class="cls-1" d="M6.22,58.82a1,1,0,0,0-.85.86C5.26,60.46,2.8,79.08,13,89.3c6.79,6.8,17.31,8,23.82,8a47.43,47.43,0,0,0,5.8-.33,1,1,0,0,0,.86-.86c.11-.78,2.57-19.41-7.65-29.62S7,58.71,6.22,58.82ZM11.44,84A28.74,28.74,0,0,1,8.3,76.21h13L29.16,84ZM7.87,74.21A50.23,50.23,0,0,1,7.16,62L19.34,74.21Zm6.56,13.68A20.28,20.28,0,0,1,12.8,86H31.16l9.12,9.12C35.2,95.47,22,95.48,14.43,87.89ZM41.7,93.74,8.58,60.62c5.08-.33,18.25-.35,25.85,7.26S42,88.67,41.7,93.74Zm98.6-40.32a1,1,0,0,0-.85-.85c-.65-.09-16-2.11-24.42,6.32s-6.4,23.77-6.31,24.42a1,1,0,0,0,.86.85,37.77,37.77,0,0,0,4.76.27c5.36,0,14-1,19.65-6.59C142.42,69.41,140.39,54.07,140.3,53.42ZM125.71,65.76l-6,6v-14a22.69,22.69,0,0,1,6-2.45Zm11.38-11.38-9.38,9.38V55A40.26,40.26,0,0,1,137.09,54.38ZM116.45,60.3a15.59,15.59,0,0,1,1.22-1.09V73.65s0,.08,0,.12l-7.16,7.16C110.29,76.55,110.45,66.3,116.45,60.3Zm16.13,16.13c-6,6-16.26,6.16-20.64,5.92L138.5,55.8C138.74,60.18,138.58,70.43,132.58,76.43ZM101,46.65a12.56,12.56,0,0,0,.25-2.38c0-8.54-8.76-15.25-9.13-15.53a1,1,0,0,0-1.21,0c-.31.23-6.37,4.9-8.43,11.36l-.62.09a42.44,42.44,0,0,1-6.33.71,46,46,0,0,1-6.69-.68,30.52,30.52,0,0,0-8.19-.55C53,40.54,47.8,47.5,46,54a18.4,18.4,0,0,0-.11,9.79,42.58,42.58,0,0,0,4,9.07c2.21,4.11,4.31,8,4.45,12.72a47.34,47.34,0,0,1-.76,9.17l-.14.9a29.5,29.5,0,0,0-.43,9.09c1.07,7.36,5.6,13.8,11.28,16,0,0,3.39,1.26,5,0s1.3-3.73,1-6c0-.28-.06-.55-.09-.8-.77-7.37-.52-13.43.7-16.62.63-1.68,2-4.53,4.4-4.43,1.69,0,2.62,1.25,3.64,3.32A16.82,16.82,0,0,1,80.76,103a38.63,38.63,0,0,1-.3,8.69c-.15,1.26-.3,2.57-.38,3.87-.16,2.6,0,4.51,1.21,5.38a3.16,3.16,0,0,0,1.81.51,9.21,9.21,0,0,0,3-.68,13.64,13.64,0,0,0,3.29-1.65c4.47-3.21,7.87-9.59,8.26-15.5A37.25,37.25,0,0,0,97,94.16a43.29,43.29,0,0,1-.74-6,21.72,21.72,0,0,1,2-10.15c.67-1.57,1.53-3.16,2.44-4.85,2.25-4.19,4.8-8.93,4.76-14.4a20.12,20.12,0,0,0-4.1-11.64Zm-1.75-2.38c0,5.44-4.31,10.26-6.73,12.53V31.73C94.91,34,99.22,38.82,99.22,44.27Zm-15-3,5.86,5.85a.91.91,0,0,0,.44.24V56.8c-2.42-2.27-6.73-7.09-6.73-12.53A11.65,11.65,0,0,1,84.19,41.25Zm6.3-9.52v13l-5.22-5.22a1.07,1.07,0,0,0-.37-.22A24.54,24.54,0,0,1,90.49,31.73Zm7.54,40c-.94,1.75-1.82,3.4-2.55,5.1A24.56,24.56,0,0,0,93.23,88.3,45.53,45.53,0,0,0,94,94.67a34.54,34.54,0,0,1,.69,8.76,18.83,18.83,0,0,1-7,13.26A10.62,10.62,0,0,1,85.12,118a6.7,6.7,0,0,1-2,.5,10.45,10.45,0,0,1,0-2.7c.07-1.23.21-2.44.36-3.72a41.21,41.21,0,0,0,.31-9.35A19.7,19.7,0,0,0,81.69,95c-.79-1.59-2.42-4.9-6.26-5h-.15c-3,0-5.56,2.25-7.13,6.36-1.88,5-1.35,13.4-.87,18,0,.27.06.56.1.86a12.81,12.81,0,0,1,.13,3.12,6.48,6.48,0,0,1-2.13-.36c-4.63-1.82-8.5-7.43-9.4-13.66a27.15,27.15,0,0,1,.42-8.19l.16-1a49.84,49.84,0,0,0,.78-9.63c-.17-5.45-2.53-9.82-4.82-14A40.63,40.63,0,0,1,48.76,63a15.47,15.47,0,0,1,.1-8.18c1.56-5.55,5.91-11.47,12.1-12.18h0a28,28,0,0,1,7.39.53,43.77,43.77,0,0,0,7.17.72,41.88,41.88,0,0,0,6.3-.67c0,.35-.06.69-.06,1A13.93,13.93,0,0,0,81.88,46a40.54,40.54,0,0,1-6.49.64,47.89,47.89,0,0,1-7.46-.75,36.67,36.67,0,0,0-5.37-.58,11.15,11.15,0,0,0-1.29.07c-4.9.56-8.51,5.68-9.78,10.2a12.83,12.83,0,0,0-.1,6.73,38.41,38.41,0,0,0,3.54,7.85c2.33,4.3,5,9.17,5.15,15.26a51.82,51.82,0,0,1-.84,10.22l-.14.9a24.75,24.75,0,0,0-.41,7.4c.63,4.33,3,8.39,5.84,10.48-.6-5.89-.89-13.89,1.07-19s5.49-8.12,9.68-8.12h.23c5.49.14,7.77,4.78,8.63,6.52a22.34,22.34,0,0,1,2.32,8.61,43.16,43.16,0,0,1-.31,10c-.08.74-.17,1.48-.24,2.22l.16-.1A16.14,16.14,0,0,0,92,103.25a32.37,32.37,0,0,0-.66-8.12,52.39,52.39,0,0,1-.81-6.73A27.66,27.66,0,0,1,93,75.8c.78-1.82,1.74-3.61,2.67-5.33,2.11-3.94,4.1-7.64,4.07-11.64a13,13,0,0,0-1.45-5.71,22.37,22.37,0,0,0,1.57-2.81,16.55,16.55,0,0,1,2.62,8.5C102.47,63.51,100.21,67.71,98,71.77Z"/>
  </g>
</svg>
