<svg xmlns="http://www.w3.org/2000/svg" viewBox="0 0 150 150">
  <defs>
    <style>
      .cls-1 {
        fill: #d7df23;
      }
    </style>
  </defs>
  <title>fresh_breath1</title>
  <g id="удаляет_налёт" data-name="удаляет налёт">
    <path class="cls-1" d="M88.74,61.72a7.58,7.58,0,0,0-3.6,3.6,7.56,7.56,0,0,0-3.59-3.6,7.5,7.5,0,0,0,3.59-3.59A7.52,7.52,0,0,0,88.74,61.72Zm10.58-2.78c0,4-2,7.69-4.07,11.62-.92,1.72-1.89,3.5-2.66,5.32a27.45,27.45,0,0,0-2.46,12.58,48.56,48.56,0,0,0,.81,6.71,32.35,32.35,0,0,1,.65,8.11,16.1,16.1,0,0,1-5.87,11.2l-.16.11c.06-.74.15-1.48.24-2.22a43.48,43.48,0,0,0,.3-9.93,22.29,22.29,0,0,0-2.31-8.6c-.86-1.74-3.14-6.37-8.62-6.51h-.23c-4.18,0-7.7,3-9.66,8.11s-1.67,13.1-1.06,19c-2.89-2.08-5.21-6.14-5.84-10.46a24.71,24.71,0,0,1,.41-7.39l.15-.89a53.29,53.29,0,0,0,.83-10.2c-.19-6.09-2.82-11-5.14-15.24a38.34,38.34,0,0,1-3.54-7.84,12.76,12.76,0,0,1,.11-6.71c1.27-4.51,4.86-9.62,9.76-10.19.43,0,.85-.06,1.28-.06A36.4,36.4,0,0,1,67.6,46a48,48,0,0,0,7.45.75A44.77,44.77,0,0,0,82.4,46a35.56,35.56,0,0,1,5.45-.62,8.27,8.27,0,0,1,2.47.32,12.53,12.53,0,0,1,6,4.91A14.51,14.51,0,0,1,99.32,58.94Zm-4.68,2.78a1,1,0,0,0-1-1c-5,0-7.5-2.52-7.5-7.5a1,1,0,0,0-2,0c0,5-2.52,7.5-7.5,7.5a1,1,0,0,0,0,2c5,0,7.5,2.53,7.5,7.51a1,1,0,0,0,2,0c0-5,2.52-7.51,7.5-7.51A1,1,0,0,0,94.64,61.72Zm10.41-2.81c0,5.45-2.51,10.18-4.75,14.36-.91,1.68-1.77,3.28-2.44,4.85a21.63,21.63,0,0,0-2,10.13,44.8,44.8,0,0,0,.73,6,37.13,37.13,0,0,1,.72,9.46c-.39,5.9-3.78,12.26-8.24,15.48a14.22,14.22,0,0,1-3.29,1.65,9.28,9.28,0,0,1-3,.66,3.06,3.06,0,0,1-1.82-.51c-1.23-.85-1.37-2.76-1.21-5.36.08-1.31.23-2.61.38-3.86a38.56,38.56,0,0,0,.3-8.68,16.88,16.88,0,0,0-1.76-6.67c-1-2.07-1.93-3.27-3.63-3.31h-.08c-2.3,0-3.68,2.75-4.31,4.41-1.21,3.19-1.47,9.23-.7,16.59,0,.25.06.52.1.8.27,2.22.58,4.73-1,5.94s-5,0-5,0c-5.67-2.21-10.19-8.64-11.26-16a29.46,29.46,0,0,1,.43-9.09l.14-.88A47.26,47.26,0,0,0,54,85.66c-.15-4.73-2.24-8.6-4.45-12.7a42.89,42.89,0,0,1-4-9,18.27,18.27,0,0,1,.12-9.78c1.83-6.49,7.05-13.44,14.61-14.31a30,30,0,0,1,8.18.54,45.81,45.81,0,0,0,6.68.68,41,41,0,0,0,6.32-.7c3.5-.57,7.12-1.16,10.5-.13,4.39,1.33,7.51,5,9,7.07A20.14,20.14,0,0,1,105.05,58.91Zm-3,0A17.23,17.23,0,0,0,98.51,49c-1.25-1.76-3.87-4.87-7.4-5.94-2.72-.83-5.84-.32-9.15.22a42.89,42.89,0,0,1-6.78.74A46.94,46.94,0,0,1,68,43.33a27.89,27.89,0,0,0-7.37-.53h0c-6.18.71-10.52,6.61-12.07,12.15a15.43,15.43,0,0,0-.11,8.17,39.46,39.46,0,0,0,3.76,8.42c2.28,4.22,4.64,8.58,4.81,14a49.79,49.79,0,0,1-.79,9.63l-.15,1a27.14,27.14,0,0,0-.42,8.19c.9,6.22,4.76,11.82,9.38,13.63a6.65,6.65,0,0,0,2.12.36,12.24,12.24,0,0,0-.13-3.11c0-.3-.07-.59-.1-.86-.48-4.59-1-13,.88-18,1.55-4.1,4.07-6.36,7.11-6.36h.15c3.85.1,5.47,3.4,6.25,5a19.78,19.78,0,0,1,2,7.67,40.6,40.6,0,0,1-.3,9.34c-.15,1.27-.29,2.48-.37,3.71a10.17,10.17,0,0,0,.06,2.71,8.43,8.43,0,0,0,2-.52,10.54,10.54,0,0,0,2.54-1.26,18.77,18.77,0,0,0,7-13.24,34.58,34.58,0,0,0-.69-8.76,48.25,48.25,0,0,1-.77-6.34A24.76,24.76,0,0,1,95.1,77c.73-1.7,1.61-3.35,2.55-5.1C99.83,67.8,102.08,63.61,102.05,58.93Zm35.37-25.24a1,1,0,0,1-1,1c-12.62,0-19.3,6.68-19.3,19.31a1,1,0,0,1-2,0c0-12.63-6.67-19.31-19.3-19.31a1,1,0,0,1,0-2c12.63,0,19.3-6.67,19.3-19.3a1,1,0,1,1,2,0c0,12.63,6.68,19.3,19.3,19.3A1,1,0,0,1,137.42,33.69Zm-8.86,0a17.13,17.13,0,0,1-12.44-12.43,17.12,17.12,0,0,1-12.43,12.43,17.13,17.13,0,0,1,12.43,12.44A17.14,17.14,0,0,1,128.56,33.69Z"/>
  </g>
</svg>
