<svg xmlns="http://www.w3.org/2000/svg" viewBox="0 0 150 150">
  <defs>
    <style>
      .cls-1 {
        fill: #d7df23;
      }
    </style>
  </defs>
  <title>fresh_breath2</title>
  <g id="свежее_дыхание" data-name="свежее дыхание">
    <path class="cls-1" d="M96.29,70.36c2.16-3.85,4.19-7.49,4.16-11.41a13.94,13.94,0,0,0-3.1-8.2,12.69,12.69,0,0,0-6.1-4.83,9,9,0,0,0-2.52-.31,38.55,38.55,0,0,0-5.57.61,47.93,47.93,0,0,1-7.51.76A51.33,51.33,0,0,1,68,46.25a38.11,38.11,0,0,0-5.48-.57,11.38,11.38,0,0,0-1.31.06c-5,.56-8.68,5.58-10,10a12.06,12.06,0,0,0-.1,6.6,30.14,30.14,0,0,0,2.77,6.2h0a3.07,3.07,0,0,1,4.16,1.29A3.06,3.06,0,0,1,56.88,74c.33.65.64,1.31.94,2a24.65,24.65,0,0,0,2.61-1.22,3.09,3.09,0,0,1,2.94,5.43h0a32.6,32.6,0,0,1-3.7,1.7A21.65,21.65,0,0,1,60,84.44a37.38,37.38,0,0,0,6.43-3.06,3.08,3.08,0,1,1,3.16,5.29A43.59,43.59,0,0,1,59.75,91c-.16,1.39-.36,2.73-.57,4.06l-.15.88a23.85,23.85,0,0,0-.42,7.26,15.71,15.71,0,0,0,6,10.28c-.62-5.78-.92-13.62,1.08-18.66s5.61-8,9.88-8h.23c5.6.13,7.93,4.68,8.81,6.39a21.29,21.29,0,0,1,2.36,8.45,40.89,40.89,0,0,1-.31,9.76c-.09.73-.17,1.46-.25,2.19a1,1,0,0,0,.17-.11,15.64,15.64,0,0,0,6-11,30.81,30.81,0,0,0-.66-8A45.33,45.33,0,0,1,91.06,88a26.07,26.07,0,0,1,2.52-12.37C94.37,73.81,95.35,72.06,96.29,70.36ZM70,73.11a3.39,3.39,0,0,1-3.13,2.09,3.47,3.47,0,0,1-2.42-1,3.54,3.54,0,0,1-1-2.42,3.76,3.76,0,0,1,.26-1.28,4.13,4.13,0,0,1,.71-1.11,3.58,3.58,0,0,1,4.84,0A3.51,3.51,0,0,1,70,70.51a3.21,3.21,0,0,1,.26,1.28A3,3,0,0,1,70,73.11Zm6.6,7.16,0,0a3.55,3.55,0,0,1-2.41,1A3.69,3.69,0,0,1,72.9,81a4.19,4.19,0,0,1-1.1-.73,3.39,3.39,0,0,1-1-2.43,3.44,3.44,0,0,1,1-2.43,3.36,3.36,0,0,1,2.37-1,3.35,3.35,0,0,1,3.45,3.39A3.36,3.36,0,0,1,76.62,80.27Zm29.65-21.35c0,5.37-2.56,10-4.86,14.14-.93,1.66-1.8,3.22-2.49,4.77a20.57,20.57,0,0,0-2,9.91,43.1,43.1,0,0,0,.75,5.84,35.54,35.54,0,0,1,.74,9.32,21.46,21.46,0,0,1-8.43,15.24,14.52,14.52,0,0,1-3.35,1.62,10,10,0,0,1-3.07.64,3.16,3.16,0,0,1-1.8-.48c-1.26-.85-1.41-2.74-1.24-5.32.08-1.28.23-2.56.38-3.8a35.9,35.9,0,0,0,.31-8.5,15.93,15.93,0,0,0-1.79-6.54c-1-2-2-3.22-3.75-3.26h-.08c-2.38,0-3.8,2.71-4.44,4.34-1.24,3.12-1.5,9-.71,16.27,0,.24.06.5.09.78.27,2.09.61,4.69-1,5.88s-5,0-5.07,0C58.57,117.56,54,111.24,52.85,104a28,28,0,0,1,.44-9l.14-.87c.1-.62.19-1.22.28-1.81,1-.16,2.07-.36,3.1-.6-.12,1-.26,1.89-.4,2.79l-.16,1a25.72,25.72,0,0,0-.43,8c.92,6.1,4.87,11.6,9.59,13.38a6.58,6.58,0,0,0,2.23.35,11.57,11.57,0,0,0-.13-3c0-.3-.08-.58-.11-.84-.49-4.52-1-12.83.91-17.69,1.61-4.1,4.25-6.29,7.38-6.24,3.9.1,5.55,3.34,6.35,4.9a18.84,18.84,0,0,1,2.1,7.56,38.21,38.21,0,0,1-.31,9.19c-.15,1.26-.29,2.44-.37,3.64a10.37,10.37,0,0,0,.05,2.64,8,8,0,0,0,2.1-.51,11.64,11.64,0,0,0,2.62-1.25,18.29,18.29,0,0,0,7.14-13,32.84,32.84,0,0,0-.7-8.59,43.49,43.49,0,0,1-.79-6.24,23.48,23.48,0,0,1,2.3-11.24c.74-1.68,1.65-3.3,2.61-5,2.22-4,4.51-8.08,4.48-12.67a16.51,16.51,0,0,0-3.6-9.7c-1.28-1.73-4-4.78-7.58-5.85-2.8-.81-6-.31-9.39.22a46.08,46.08,0,0,1-6.92.73,47.55,47.55,0,0,1-7.3-.7,30.18,30.18,0,0,0-7.56-.52c-6.33.7-10.77,6.5-12.36,11.94a14.55,14.55,0,0,0-.11,8,31.39,31.39,0,0,0,2.88,6.53,12.35,12.35,0,0,1-3.18.42,31.07,31.07,0,0,1-2.59-6.13,17.41,17.41,0,0,1,.12-9.65c1.87-6.39,7.2-13.22,14.91-14.08a32.49,32.49,0,0,1,8.34.54,42.73,42.73,0,0,0,6.84.67,44.41,44.41,0,0,0,6.47-.69c3.56-.56,7.25-1.14,10.69-.14,4.47,1.31,7.65,4.92,9.15,7A19.34,19.34,0,0,1,106.27,58.92ZM36,67.35a1.59,1.59,0,0,1,2.24,0h0a14,14,0,0,0,16.45,2.52,1.56,1.56,0,0,1,2.13.66,1.54,1.54,0,0,1,.11,1.21,1.58,1.58,0,0,1-.77.93A17.15,17.15,0,0,1,36,69.59a1.59,1.59,0,0,1,0-2.24Zm39.59,9.13a1.94,1.94,0,0,1,0,2.72,1.9,1.9,0,0,1-2,.45,2.78,2.78,0,0,1-.66-.43,1.92,1.92,0,0,1-.56-1.37,2,2,0,0,1,.57-1.38,1.86,1.86,0,0,1,1.3-.51h0A2,2,0,0,1,75.56,76.48Zm-14.41-.42a1.58,1.58,0,0,1,1.51,2.78,31.26,31.26,0,0,1-14.83,3.73A31.65,31.65,0,0,1,25.6,73.44a31,31,0,0,1-7.13-11,1.58,1.58,0,0,1,.92-2,1.5,1.5,0,0,1,.56-.1,1.59,1.59,0,0,1,1.48,1,27.94,27.94,0,0,0,6.41,9.9A28.31,28.31,0,0,0,61.15,76.06Zm4.37-5.61a2,2,0,0,1,1.38-.51,1.93,1.93,0,0,1,1.31.47,2.29,2.29,0,0,1,.45.68,1.85,1.85,0,0,1,0,1.48,1.69,1.69,0,0,1-.39.58,1.85,1.85,0,0,1-.65.41,1.93,1.93,0,0,1-2-.41,2,2,0,0,1-.39-.59,2.17,2.17,0,0,1-.17-.77,2.12,2.12,0,0,1,.14-.69A2.75,2.75,0,0,1,65.52,70.45Zm-46,6.3a39,39,0,0,0,47.68,5.92,1.55,1.55,0,0,1,1.19-.18,1.57,1.57,0,0,1,1.15,1.92,1.51,1.51,0,0,1-.72,1h0A42.23,42.23,0,0,1,4.94,51,1.57,1.57,0,0,1,6.46,49.3h.11a1.46,1.46,0,0,1,1,.38,1.57,1.57,0,0,1,.52,1.14A39,39,0,0,0,19.5,76.75Z"/>
  </g>
</svg>
