<svg width="27" height="27" viewBox="0 0 27 27" fill="none" xmlns="http://www.w3.org/2000/svg">
<path d="M13.4999 11.1304C13.0239 11.1304 12.5586 11.2715 12.1628 11.536C11.7671 11.8004 11.4586 12.1763 11.2765 12.616C11.0943 13.0558 11.0466 13.5396 11.1395 14.0065C11.2324 14.4733 11.4616 14.9021 11.7981 15.2387C12.1347 15.5753 12.5635 15.8045 13.0304 15.8973C13.4972 15.9902 13.9811 15.9425 14.4208 15.7604C14.8606 15.5782 15.2364 15.2698 15.5009 14.874C15.7653 14.4783 15.9065 14.013 15.9065 13.537C15.9021 12.9 15.6472 12.2904 15.1968 11.84C14.7464 11.3897 14.1368 11.1347 13.4999 11.1304Z" fill="#2051C8"/>
<path fill-rule="evenodd" clip-rule="evenodd" d="M17.5237 7.18188H9.47633C8.85859 7.18394 8.26675 7.43025 7.82994 7.86705C7.39314 8.30386 7.14683 8.8957 7.14478 9.51344V17.5608C7.14683 18.1785 7.39314 18.7704 7.82994 19.2072C8.26675 19.644 8.85859 19.8903 9.47633 19.8923H17.5237C18.1414 19.8903 18.7333 19.644 19.1701 19.2072C19.6069 18.7704 19.8532 18.1785 19.8552 17.5608V9.51344C19.8532 8.8957 19.6069 8.30386 19.1701 7.86705C18.7333 7.43025 18.1414 7.18394 17.5237 7.18188ZM13.5 17.709C12.6743 17.7093 11.8671 17.4648 11.1804 17.0064C10.4938 16.5479 9.9585 15.896 9.64235 15.1333C9.32621 14.3706 9.24339 13.5312 9.40437 12.7214C9.56536 11.9116 9.96291 11.1677 10.5467 10.5839C11.1306 10 11.8745 9.60247 12.6843 9.44148C13.4941 9.2805 14.3335 9.36332 15.0962 9.67946C15.8589 9.99561 16.5108 10.5309 16.9692 11.2176C17.4277 11.9042 17.6722 12.7115 17.6718 13.5371C17.6667 14.642 17.2255 15.7001 16.4443 16.4814C15.663 17.2627 14.6049 17.7038 13.5 17.709ZM17.8249 10.226C17.5664 10.226 17.3184 10.1233 17.1356 9.94047C16.9528 9.75768 16.8502 9.50975 16.8502 9.25123C16.8502 9.05845 16.9073 8.87 17.0144 8.7097C17.1215 8.54941 17.2738 8.42448 17.4519 8.3507C17.63 8.27693 17.826 8.25762 18.015 8.29523C18.2041 8.33284 18.3778 8.42568 18.5141 8.562C18.6504 8.69832 18.7433 8.872 18.7809 9.06107C18.8185 9.25015 18.7992 9.44614 18.7254 9.62425C18.6516 9.80236 18.5267 9.95459 18.3664 10.0617C18.2061 10.1688 18.0177 10.226 17.8249 10.226Z" fill="#2051C8"/>
<path fill-rule="evenodd" clip-rule="evenodd" d="M5.99981 2.27516C8.21987 0.791761 10.83 0 13.5 0C17.0794 0.003355 20.5112 1.42675 23.0422 3.95776C25.5732 6.48878 26.9966 9.9206 27 13.5C27 16.17 26.2082 18.7801 24.7248 21.0002C23.2414 23.2203 21.133 24.9506 18.6662 25.9724C16.1994 26.9942 13.485 27.2615 10.8663 26.7406C8.24754 26.2197 5.84207 24.9339 3.95406 23.0459C2.06606 21.1579 0.780305 18.7525 0.259405 16.1337C-0.261496 13.515 0.00584936 10.8006 1.02763 8.33377C2.04941 5.86697 3.77974 3.75856 5.99981 2.27516ZM20.4191 20.4561C21.1872 19.688 21.6198 18.647 21.6224 17.5607V9.51336C21.6198 8.42709 21.1872 7.38606 20.4191 6.61795C19.651 5.84985 18.6099 5.41719 17.5237 5.41462H9.47632C8.39006 5.41719 7.34903 5.84985 6.58092 6.61795C5.81282 7.38606 5.38016 8.42709 5.37759 9.51336V17.5607C5.38016 18.647 5.81282 19.688 6.58092 20.4561C7.34903 21.2242 8.39006 21.6569 9.47632 21.6595H17.5237C18.6099 21.6569 19.651 21.2242 20.4191 20.4561Z" fill="#2051C8"/>
</svg>
