<svg width="27" height="27" viewBox="0 0 27 27" fill="none" xmlns="http://www.w3.org/2000/svg">
<path d="M13.5 3.51971e-08C10.83 3.51971e-08 8.21987 0.791761 5.99981 2.27516C3.77974 3.75856 2.04941 5.86697 1.02763 8.33377C0.00584934 10.8006 -0.261496 13.515 0.259405 16.1337C0.780305 18.7525 2.06606 21.1579 3.95406 23.0459C5.84207 24.9339 8.24754 26.2197 10.8663 26.7406C13.485 27.2615 16.1994 26.9942 18.6662 25.9724C21.133 24.9506 23.2414 23.2203 24.7248 21.0002C26.2082 18.7801 27 16.17 27 13.5C27.0001 11.7271 26.651 9.97157 25.9726 8.33362C25.2942 6.69567 24.2998 5.20739 23.0462 3.95377C21.7926 2.70016 20.3043 1.70576 18.6664 1.02737C17.0284 0.348972 15.2729 -0.000127985 13.5 3.51971e-08ZM17.1981 8.26863H15.2487C15.1389 8.26124 15.0288 8.27849 14.9266 8.31913C14.8243 8.35978 14.7324 8.42278 14.6577 8.50352C14.5829 8.58426 14.5272 8.68069 14.4945 8.78577C14.4618 8.89084 14.4531 9.0019 14.4689 9.11079V10.9452H17.2049L16.8628 14.0361H14.4621V22.8457H10.8195V14.0108H9.07961V10.917H10.8195V8.89928C10.7809 8.40779 10.8494 7.91378 11.0201 7.45127C11.1908 6.98876 11.4597 6.56875 11.8083 6.22014C12.1569 5.87154 12.5769 5.60263 13.0394 5.43194C13.5019 5.26124 13.9959 5.19282 14.4874 5.23137H17.1933L17.1981 8.26863Z" fill="#2051C8"/>
</svg>
